<?xml version="1.0" encoding="UTF-8" standalone="no"?>
<!-- Created with Inkscape (http://www.inkscape.org/) -->

<svg
   xmlns:dc="http://purl.org/dc/elements/1.1/"
   xmlns:cc="http://creativecommons.org/ns#"
   xmlns:rdf="http://www.w3.org/1999/02/22-rdf-syntax-ns#"
   xmlns:svg="http://www.w3.org/2000/svg"
   xmlns="http://www.w3.org/2000/svg"
   xmlns:xlink="http://www.w3.org/1999/xlink"
   xmlns:sodipodi="http://sodipodi.sourceforge.net/DTD/sodipodi-0.dtd"
   xmlns:inkscape="http://www.inkscape.org/namespaces/inkscape"
   width="210mm"
   height="210mm"
   viewBox="0 0 744.09449 744.09448"
   id="svg6671"
   version="1.1"
   inkscape:version="0.91 r13725"
   sodipodi:docname="brush.svg">
  <defs
     id="defs6673">
    <linearGradient
       inkscape:collect="always"
       id="linearGradient7267">
      <stop
         style="stop-color:#26a900;stop-opacity:1;"
         offset="0"
         id="stop7269" />
      <stop
         style="stop-color:#26a900;stop-opacity:0;"
         offset="1"
         id="stop7271" />
    </linearGradient>
    <linearGradient
       inkscape:collect="always"
       xlink:href="#linearGradient7267"
       id="linearGradient7273"
       x1="360"
       y1="298.07648"
       x2="374.28571"
       y2="1183.7908"
       gradientUnits="userSpaceOnUse" />
  </defs>
  <sodipodi:namedview
     id="base"
     pagecolor="#ffffff"
     bordercolor="#666666"
     borderopacity="1.0"
     inkscape:pageopacity="0.0"
     inkscape:pageshadow="2"
     inkscape:zoom="0.35"
     inkscape:cx="-39.285714"
     inkscape:cy="520"
     inkscape:document-units="px"
     inkscape:current-layer="layer1"
     showgrid="false"
     inkscape:window-width="1680"
     inkscape:window-height="932"
     inkscape:window-x="0"
     inkscape:window-y="1"
     inkscape:window-maximized="1" />
  <metadata
     id="metadata6676">
    <rdf:RDF>
      <cc:Work
         rdf:about="">
        <dc:format>image/svg+xml</dc:format>
        <dc:type
           rdf:resource="http://purl.org/dc/dcmitype/StillImage" />
        <dc:title></dc:title>
      </cc:Work>
    </rdf:RDF>
  </metadata>
  <g
     inkscape:label="Layer 1"
     inkscape:groupmode="layer"
     id="layer1"
     transform="translate(0,-308.26772)">
    <rect
       style="opacity:1;fill:url(#linearGradient7273);fill-opacity:1"
       id="rect6681"
       width="777.14288"
       height="777.14288"
       x="-17.142857"
       y="295.21933" />
    <path
       style="opacity:1;fill:#ff5333;fill-opacity:1"
       id="path7327"
       d="m 125.89148,799.93737 c 14.90934,0.26149 29.82782,0.58686 44.72746,-0.0844 2.73276,-0.31572 5.49995,-0.41181 8.19829,-0.94716 5.22716,-1.03708 10.40954,-3.05417 15.14659,-5.45312 2.39523,-1.213 9.32675,-5.32314 6.97186,-4.03357 -30.06719,16.46524 -36.69734,22.75449 -21.15676,9.77162 16.08721,-15.72732 25.69146,-36.21572 33.81202,-56.8509 13.42095,-35.3364 21.36258,-72.39378 28.8141,-109.35342 7.61161,-39.17591 12.81255,-78.73828 18.09476,-118.27483 3.30877,-18.48225 4.30999,-37.34503 8.25998,-55.71419 1.40224,-6.52105 3.24605,-12.87352 5.02064,-19.29437 3.64876,-12.25252 8.58,-24.14917 15.477,-34.9315 2.97623,-4.32722 6.24856,-8.84849 10.87506,-11.58217 38.45216,-22.72051 24.5551,-18.77549 42.32262,-23.41127 6.79195,-1.41026 13.76142,-1.40777 20.66651,-1.3666 1.39457,0.0124 2.82564,-0.28007 4.18372,0.0371 1.55105,0.36225 2.93862,1.23681 4.35877,1.95802 7.74127,3.93133 13.68317,9.54912 19.68676,15.71197 12.2353,12.9191 21.71313,27.90667 30.85897,43.06973 10.69372,17.69254 17.20871,37.29213 22.931,57.02766 7.82815,27.2138 12.39084,55.27928 16.88547,83.2056 5.04646,30.65812 7.26871,61.6699 11.10067,92.48482 4.24132,33.77142 11.32211,67.12631 20.15295,99.97343 10.39888,35.50513 25.10024,69.43086 42.74843,101.87824 15.04499,28.4478 33.13357,55.13855 54.09869,79.52794 12.11248,13.27273 24.8281,26.22045 39.14545,37.13792 3.90123,2.82103 7.98732,5.2362 12.8155,5.61671 14.39214,-1.71176 1.16108,-0.24944 -34.9888,19.25045 0,0 39.45889,-15.94859 39.45889,-15.94859 l 0,0 c -38.63729,21.57569 -24.07766,24.79479 -39.43978,21.10959 -4.97324,-1.4914 -9.2403,-4.6112 -13.271,-7.7981 -13.78883,-11.74711 -26.27187,-25.044 -38.19951,-38.64604 -20.57607,-25.01456 -38.83755,-51.86147 -53.89176,-80.58215 -17.75753,-32.76004 -32.23227,-67.03715 -42.99422,-102.75789 -9.49162,-32.80924 -16.37385,-66.36045 -20.93867,-100.2157 -3.87841,-30.75129 -6.14801,-61.69842 -11.15182,-92.29921 -4.46662,-27.70347 -9.12227,-55.54293 -17.20328,-82.45276 -5.79143,-19.30798 -12.40234,-38.49064 -22.81177,-55.87275 -9.1136,-14.80415 -18.26952,-29.65742 -30.64322,-42.03746 -7.48293,-7.18116 -15.8504,-15.28261 -26.96992,-14.56575 -6.68661,0.17599 -13.49688,0.23391 -19.87021,2.53229 -14.47107,6.79471 -5.19926,2.55008 30.21202,-17.99806 1.04136,-0.60427 -2.05892,1.24984 -3.06298,1.91426 -3.47522,2.29967 -6.53185,4.73058 -8.60122,8.45321 -5.31811,6.43778 -1.21965,0.89868 -5.55856,8.67045 -0.9392,1.68229 -2.17135,3.19666 -3.0371,4.91791 -3.26923,6.49973 -5.6747,13.56937 -8.18638,20.37565 -1.98576,6.36768 -4.06265,12.72351 -5.65849,19.20575 -4.52712,18.38889 -5.70981,37.41171 -9.34509,55.97566 -5.77382,39.63463 -11.10896,79.32824 -18.47851,118.71399 -7.2363,36.85966 -15.04625,73.73454 -27.22637,109.32993 -2.83929,7.7675 -5.51051,15.74393 -9.1516,23.19815 -6.1547,12.60018 -13.80681,24.77211 -23.21695,35.17231 -18.41706,17.27973 -5.85537,6.39549 -49.11967,31.65215 -9.58636,5.59629 -20.26888,8.54087 -31.34739,8.85002 -15.23121,0.48935 -30.47107,0.21239 -45.705793,0.5991 0,0 34.202643,-24.84967 34.202643,-24.84967 z"
       inkscape:connector-curvature="0" />
    <path
       style="opacity:1;fill:#ff5333;fill-opacity:1"
       id="path7329"
       d="m 296.68869,625.61375 c 7.94417,0.16793 15.89135,0.10144 23.83669,0.0733 6.22631,-0.0504 12.45316,-0.0339 18.67972,-0.0396 6.35946,0.33321 12.54312,-0.10358 18.62264,-2.03303 6.55173,-1.88759 12.69254,-4.81359 18.87765,-7.65654 1.07193,-0.5923 2.11051,-1.24947 3.2158,-1.7769 1.19677,-0.57109 2.48329,-0.94012 3.67908,-1.51327 1.13357,-0.54334 4.38712,-2.45674 3.29714,-1.83051 -58.16515,33.41763 -39.11678,23.25407 -26.95375,14.86161 17.88507,-12.35999 36.91189,-22.65789 55.74528,-33.5762 -11.04418,6.36958 -22.0817,12.75072 -33.13253,19.10875 -0.85562,0.49228 1.69242,-1.01673 2.54667,-1.51138 12.96544,-7.50758 25.89187,-15.08332 38.91224,-22.49522 0.93591,-0.53277 1.95903,-0.89527 2.94369,-1.33143 0.87852,-0.38914 3.47609,-1.62766 2.64563,-1.14438 -11.35347,6.60704 -22.82064,13.01677 -34.23096,19.52516 101.6146,-57.88821 5.71091,-3.16461 4.28274,-2.37427 -0.72927,0.40357 1.23819,-1.11834 1.89612,-1.63003 1.53147,-1.19109 3.21289,-2.15038 4.72516,-3.37912 13.65366,-11.6792 30.07164,-18.90605 45.74811,-27.97455 -11.569,6.65263 -23.10919,13.35564 -34.70702,19.9579 -0.82062,0.46716 1.35431,-1.34492 2.16928,-1.82188 12.43953,-7.2802 24.986,-14.37612 37.47901,-21.56418 0,0 -33.26964,26.68206 -33.26964,26.68206 l 0,0 c 93.72595,-54.23642 -4.1215,2.11031 -4.84667,3.38795 69.48921,-40.51038 38.00997,-24.04566 26.8661,-14.5633 -21.27995,17.80459 -85.76765,49.14594 -10.78186,8.04701 -12.82366,7.34368 -25.61766,14.7394 -38.47098,22.03104 -34.69553,19.68267 112.33529,-65.28341 -13.57793,7.5966 63.97543,-37.16388 30.28943,-18.14854 16.34162,-8.35495 -17.87846,11.66484 -36.12153,22.96045 -55.56951,31.87166 -6.28019,2.80552 -12.64691,5.50005 -19.36613,7.08136 -6.39714,1.22673 -12.79535,1.45176 -19.30132,1.23821 -6.19019,-0.006 -12.3807,0.011 -18.57064,-0.0396 -8.01261,-0.0287 -16.0269,-0.0923 -24.03841,0.0733 0,0 34.30698,-24.92548 34.30698,-24.92548 z"
       inkscape:connector-curvature="0" />
  </g>
</svg>
