<?xml version="1.0" encoding="iso-8859-1"?>
<!-- Generator: Adobe Illustrator 19.0.0, SVG Export Plug-In . SVG Version: 6.00 Build 0)  -->
<svg version="1.1" id="Layer_1" xmlns="http://www.w3.org/2000/svg" xmlns:xlink="http://www.w3.org/1999/xlink" x="0px" y="0px"
	 viewBox="0 0 512 512" style="enable-background:new 0 0 512 512;" xml:space="preserve">
<g>
	<g>
		<path d="M282.892,471.975c-26.428,0-51.222-12.95-66.322-34.642l-20.678-29.708c-2.18-3.132-5.761-5.02-9.577-5.045
			c-17.017-0.122-42.664-1.465-68.208-7.166c-15.134-3.378-28.591-7.916-40.32-13.556v46.664h75.441v33.391H77.786V512h238.386
			v-40.025H282.892z"/>
	</g>
</g>
<g>
	<g>
		<path d="M123.461,164.876h44.35v-44.351C146.31,126.413,129.349,143.374,123.461,164.876z"/>
	</g>
</g>
<g>
	<g>
		<path d="M123.461,198.268c5.888,21.502,22.849,38.463,44.35,44.351v-44.351H123.461z"/>
	</g>
</g>
<g>
	<g>
		<path d="M201.203,120.525v44.351h44.35C239.665,143.374,222.705,126.413,201.203,120.525z"/>
	</g>
</g>
<g>
	<g>
		<path d="M201.203,198.268v44.351c21.502-5.888,38.462-22.849,44.35-44.351H201.203z"/>
	</g>
</g>
<g>
	<g>
		<path d="M488.542,251.064c-6.226-11.391-15.199-20.187-23.876-28.694c-13.039-12.782-25.351-24.851-28.245-44.61
			c-7.172-48.966-31.89-93.939-69.597-126.632C328.794,18.157,280.084,0,229.663,0C114.371,0,20.574,93.797,20.574,209.089
			c0,48.069,18.846,95.497,50.412,126.873c28.603,28.43,90.354,31.92,115.576,32.101c15.007,0.108,29.085,7.525,37.66,19.843
			l20.677,29.708c8.649,12.426,22.853,19.844,37.993,19.844h108.888c25.524,0,46.29-20.765,46.29-46.29v-21.963h-76.86v-33.391
			h76.86v-50.601h30.107c8.267,0,15.723-4.251,19.945-11.37C492.376,266.667,492.53,258.364,488.542,251.064z M184.507,278.261
			c-53.314,0-96.689-43.375-96.689-96.689s43.374-96.689,96.689-96.689c53.315,0,96.689,43.375,96.689,96.689
			S237.821,278.261,184.507,278.261z"/>
	</g>
</g>
<g>
</g>
<g>
</g>
<g>
</g>
<g>
</g>
<g>
</g>
<g>
</g>
<g>
</g>
<g>
</g>
<g>
</g>
<g>
</g>
<g>
</g>
<g>
</g>
<g>
</g>
<g>
</g>
<g>
</g>
</svg>
